<?xml version="1.0" encoding="UTF-8"?>
<!DOCTYPE svg PUBLIC "-//W3C//DTD SVG 1.1//EN" "http://www.w3.org/Graphics/SVG/1.1/DTD/svg11.dtd">
<svg xmlns="http://www.w3.org/2000/svg" version="1.1" width="67px" height="100px" style="shape-rendering:geometricPrecision; text-rendering:geometricPrecision; image-rendering:optimizeQuality; fill-rule:evenodd; clip-rule:evenodd" xmlns:xlink="http://www.w3.org/1999/xlink">
<g><path style="opacity:0.05" fill="#d6d6d6" d="M 31.5,-0.5 C 31.8333,-0.5 32.1667,-0.5 32.5,-0.5C 32.3345,3.51383 32.5012,7.51383 33,11.5C 34.0113,10.6634 35.1779,10.33 36.5,10.5C 37.1667,10.5 37.5,10.8333 37.5,11.5C 37.1667,11.5 36.8333,11.5 36.5,11.5C 35.2223,11.7822 34.2223,12.4489 33.5,13.5C 32.5049,25.3217 32.1716,37.3217 32.5,49.5C 31.8333,50.8333 31.1667,50.8333 30.5,49.5C 31.4949,38.012 31.8283,26.3453 31.5,14.5C 30.9094,13.8485 30.2427,13.1818 29.5,12.5C 29.6236,11.8933 29.9569,11.56 30.5,11.5C 31.4834,7.70159 31.8168,3.70159 31.5,-0.5 Z"/></g>
<g><path style="opacity:0.05" fill="#d3d3d3" d="M 63.5,-0.5 C 64.5,-0.5 65.5,-0.5 66.5,-0.5C 66.5,0.166667 66.5,0.833333 66.5,1.5C 56.6905,4.43643 47.0239,7.76976 37.5,11.5C 37.5,10.8333 37.1667,10.5 36.5,10.5C 45.5803,7.02883 54.5803,3.36216 63.5,-0.5 Z"/></g>
<g><path style="opacity:0.05" fill="#d1d1d1" d="M -0.5,1.5 C -0.5,1.16667 -0.5,0.833333 -0.5,0.5C 10.1345,3.59848 20.4678,7.26515 30.5,11.5C 29.9569,11.56 29.6236,11.8933 29.5,12.5C 30.2427,13.1818 30.9094,13.8485 31.5,14.5C 20.8512,17.8299 10.1845,21.1633 -0.5,24.5C -0.5,24.1667 -0.5,23.8333 -0.5,23.5C 8.99642,20.2239 18.3297,16.5572 27.5,12.5C 18.3409,8.44584 9.00759,4.77917 -0.5,1.5 Z"/></g>
<g><path style="opacity:0.05" fill="#d2d2d2" d="M 36.5,11.5 C 36.3893,12.1174 36.056,12.6174 35.5,13C 45.757,16.8078 56.0903,20.3078 66.5,23.5C 66.5,24.5 66.5,25.5 66.5,26.5C 66.1667,26.5 65.8333,26.5 65.5,26.5C 65.5393,24.7761 65.206,24.4427 64.5,25.5C 53.9828,21.7322 43.6494,17.7322 33.5,13.5C 34.2223,12.4489 35.2223,11.7822 36.5,11.5 Z"/></g>
<g><path style="opacity:0.05" fill="#d6d6d6" d="M 65.5,26.5 C 65.1721,37.6794 65.5054,48.6794 66.5,59.5C 66.5,60.8333 66.5,62.1667 66.5,63.5C 65.5049,75.3217 65.1716,87.3217 65.5,99.5C 65.1667,99.5 64.8333,99.5 64.5,99.5C 64.8284,87.3217 64.4951,75.3217 63.5,63.5C 62.5084,63.6716 61.8417,63.3382 61.5,62.5C 61.5,61.8333 61.1667,61.5 60.5,61.5C 60.5,60.8333 60.8333,60.5 61.5,60.5C 62.5,60.5 63.5,60.5 64.5,60.5C 64.5,48.8333 64.5,37.1667 64.5,25.5C 65.206,24.4427 65.5393,24.7761 65.5,26.5 Z"/></g>
<g><path style="opacity:0.05" fill="#d1d1d1" d="M 30.5,49.5 C 31.1667,50.8333 31.8333,50.8333 32.5,49.5C 42.3439,52.9312 52.0106,56.5979 61.5,60.5C 60.8333,60.5 60.5,60.8333 60.5,61.5C 51.128,57.8756 41.628,54.5423 32,51.5C 21.7719,54.7983 11.6053,58.2983 1.5,62C 11.5391,65.7352 21.5391,69.5685 31.5,73.5C 41.5285,69.8248 51.5285,66.1581 61.5,62.5C 61.8417,63.3382 62.5084,63.6716 63.5,63.5C 53.3876,67.3762 43.2209,71.3762 33,75.5C 32.5003,83.4931 32.3336,91.4931 32.5,99.5C 32.1667,99.5 31.8333,99.5 31.5,99.5C 31.6664,91.4931 31.4997,83.4931 31,75.5C 20.6052,71.2021 10.1052,67.2021 -0.5,63.5C -0.5,62.5 -0.5,61.5 -0.5,60.5C 9.94478,57.1092 20.2781,53.4425 30.5,49.5 Z"/></g>
</svg>
